<svg width="23" height="24" viewBox="0 0 24 24" fill="none" xmlns="http://www.w3.org/2000/svg">
    <path d="M16 2H8C4.68629 2 2 4.68629 2 8V16C2 19.3137 4.68629 22 8 22H16C19.3137 22 22 19.3137 22 16V8C22 4.68629 19.3137 2 16 2ZM20 16C20 18.2091 18.2091 20 16 20H8C5.79086 20 4 18.2091 4 16V8C4 5.79086 5.79086 4 8 4H16C18.2091 4 20 5.79086 20 8V16Z" fill="#D6CECE"/>
    <path d="M12 7C9.23858 7 7 9.23858 7 12C7 14.7614 9.23858 17 12 17C14.7614 17 17 14.7614 17 12C17 9.23858 14.7614 7 12 7ZM12 15C10.3431 15 9 13.6569 9 12C9 10.3431 10.3431 9 12 9C13.6569 9 15 10.3431 15 12C15 13.6569 13.6569 15 12 15Z" fill="#D6CECE"/>
    <path d="M17.5 6.5C17.7761 6.5 18 6.27614 18 6C18 5.72386 17.7761 5.5 17.5 5.5C17.2239 5.5 17 5.72386 17 6C17 6.27614 17.2239 6.5 17.5 6.5Z" fill="#fff"/>
</svg>
