<svg width="24" height="24" viewBox="0 0 24 24" fill="none" xmlns="http://www.w3.org/2000/svg">
    <path d="M16 2H8C4.68629 2 2 4.68629 2 8V16C2 19.3137 4.68629 22 8 22H16C19.3137 22 22 19.3137 22 16V8C22 4.68629 19.3137 2 16 2ZM20 16C20 18.2091 18.2091 20 16 20H8C5.79086 20 4 18.2091 4 16V8C4 5.79086 5.79086 4 8 4H16C18.2091 4 20 5.79086 20 8V16Z" fill="#D6CECE"/>
    <path d="M12 7C9.23858 7 7 9.23858 7 12C7 14.7614 9.23858 17 12 17C14.7614 17 17 14.7614 17 12C17 9.23858 14.7614 7 12 7ZM12 15C10.3431 15 9 13.6569 9 12C9 10.3431 10.3431 9 12 9C13.6569 9 15 10.3431 15 12C15 13.6569 13.6569 15 12 15Z" fill="#D6CECE"/>
    <path d="M17.5 6.5C17.7761 6.5 18 6.27614 18 6C18 5.72386 17.7761 5.5 17.5 5.5C17.2239 5.5 17 5.72386 17 6C17 6.27614 17.2239 6.5 17.5 6.5Z" fill="#D6CECE"/>
    <path d="M16.7 14.83C16.25 14.82 15.8 14.76 15.37 14.64C15.11 14.57 14.83 14.64 14.63 14.84C14.47 15 14.31 15.17 14.15 15.33C14.1 15.38 14.05 15.38 13.99 15.35C13.47 15.12 12.98 14.83 12.54 14.43C12.01 13.93 11.56 13.36 11.17 12.73C10.98 12.42 10.79 12.11 10.64 11.77C10.54 11.54 10.45 11.3 10.39 11.05C10.33 10.84 10.37 10.62 10.49 10.43C10.59 10.27 10.69 10.1 10.79 9.94C10.88 9.81 10.89 9.68 10.81 9.54C10.6 9.18 10.42 8.8 10.26 8.42C10.19 8.26 10.12 8.11 10.04 7.95C9.95 7.77 9.79 7.66 9.59 7.65C9.44 7.64 9.29 7.65 9.14 7.65C8.98 7.65 8.83 7.67 8.68 7.67C8.52 7.67 8.37 7.66 8.21 7.67C8.04 7.68 7.9 7.74 7.76 7.86C7.57 8.01 7.43 8.21 7.31 8.41C7.14 8.71 7.07 9.03 7.07 9.37C7.08 9.71 7.15 10.05 7.26 10.38C7.47 11.11 7.82 11.79 8.26 12.42C9.03 13.57 9.96 14.58 11.03 15.46C11.59 15.95 12.21 16.38 12.88 16.75C13.38 17.02 13.88 17.26 14.42 17.42C14.88 17.57 15.34 17.65 15.82 17.67C16.21 17.68 16.6 17.61 16.96 17.44C17.31 17.28 17.56 17.02 17.75 16.66C17.82 16.52 17.89 16.38 17.95 16.24C18 16.11 18 15.97 17.96 15.85C17.93 15.76 17.86 15.7 17.78 15.66C17.49 15.54 17.2 15.42 16.91 15.3C16.84 15.27 16.77 15.24 16.7 15.21C16.72 15.08 16.74 14.96 16.76 14.83Z" fill="#D6CECE"/>
</svg>
